M48
INCH
T01C0.0150
T02C0.0400
T03C0.0250
T04C0.0850
T05C0.0600
%
T01
X-003397Y-000850
X-003397Y+001311
X-005771Y+001291
X-005771Y-000842
X-006472Y+008929
X-005920Y+008920
X-004859Y+008920
X-004950Y+008192
X-003774Y+008929
X-002783Y+008925
X-004964Y+006700
X-003767Y+006102
X-007413Y+008925
X-001673Y+004307
X-004559Y+003562
X-011248Y+002051
X-006240Y+004015
X-005401Y+008933
X-007929Y+008937
X-017066Y+029039
X-006939Y+008917
X-010944Y+033212
X-004314Y+033610
X-022401Y+026586
X-018724Y+029370
X-015334Y+031637
X-012523Y+033472
X-010067Y+034043
X-007940Y+034696
X-005633Y+034791
X-003527Y+034791
X-000909Y+034082
X+001964Y+032374
X+005122Y+030181
X+009007Y+027078
X-004303Y+008901
X+000464Y+032775
X-003307Y+008933
X+006098Y+029110
X-005661Y+006901
X-011236Y+004755
X-000752Y+001590
X-009228Y+003763
X-007937Y+007850
X-009090Y+007263
X-008381Y+008897
X-010503Y+006425
X-009118Y+007854
X-018318Y+029051
X-009074Y+001739
X-005845Y+003491
X+003462Y+002560
X-004314Y+005157
X-005316Y+005165
X-004164Y+004479
T02
X-000104Y+003670
X-000811Y+002963
X-001518Y+002256
X-002226Y+001549
X-006255Y-001948
X-007255Y-001948
X-003720Y-001960
X-004720Y-001960
X-012769Y+005845
X-012062Y+006553
X-011355Y+007260
X-010648Y+007967
X-009941Y+008674
X+001681Y+005972
X+000770Y+005076
X+000980Y+006680
X+000069Y+005783
X+002406Y+005242
X+001495Y+004346
X-002457Y-000031
X-001457Y-000031
X-000457Y-000031
X-000096Y+007628
X-000803Y+008335
X-001510Y+009042
X-010450Y+000046
X-009450Y+000046
X-008450Y+000046
T03
X-001801Y+003303
X-002132Y+002961
X-002471Y+002613
X-002814Y+002276
X+000889Y-000133
X+001220Y+000208
X+001559Y+000556
X-011175Y+000787
X-011517Y+001118
X-011865Y+001457
T04
X-023187Y-000908
X-023181Y+006095
X+012137Y-000933
X+012130Y+006070
X-015601Y-000674
X-016567Y+018351
X-016561Y+025355
X-016567Y+011381
X-008981Y+018585
X+005277Y+018141
X+005271Y+025145
X+005277Y+011171
X-002308Y+018375
X+004550Y-000699
T05
X-007100Y+023200
X-007100Y+022500
X-007100Y+021800
X-007100Y+021100
X-007100Y+020400
X-007100Y+019700
X-007100Y+019000
X-007100Y+018300
X-007100Y+017600
X-007100Y+016900
X-007100Y+016200
X-007100Y+015500
X-007100Y+014800
X-007100Y+014100
X-007100Y+013400
X-007100Y+012700
X-007100Y+023900
X-007100Y+024600
X-004300Y+023100
X-004300Y+022400
X-004300Y+021700
X-004300Y+021000
X-004300Y+020300
X-004300Y+019600
X-004300Y+018900
X-004300Y+018200
X-004300Y+017500
X-004300Y+016800
X-004300Y+016100
X-004300Y+015400
X-004300Y+014700
X-004300Y+014000
X-004300Y+013300
X-004300Y+012600
X-004300Y+023800
X-004300Y+024500
M30
